<mxfile host="app.diagrams.net" agent="Mozilla/5.0 (Windows NT 10.0; Win64; x64) AppleWebKit/537.36 (KHTML, like Gecko) Chrome/136.0.0.0 Safari/537.36" version="27.0.9">
  <diagram name="PÃ¡gina-1" id="B_cYGBm7OzW_Ypi7U8vx">
    <mxGraphModel dx="1042" dy="535" grid="1" gridSize="10" guides="1" tooltips="1" connect="1" arrows="1" fold="1" page="1" pageScale="1" pageWidth="827" pageHeight="1169" math="0" shadow="0">
      <root>
        <mxCell id="0" />
        <mxCell id="1" parent="0" />
        <mxCell id="HN2c32hWHtCQHzf3WsaY-1" value="User" style="shape=umlActor;html=1;verticalLabelPosition=bottom;verticalAlign=top;align=center;" vertex="1" parent="1">
          <mxGeometry x="90" y="77" width="30" height="60" as="geometry" />
        </mxCell>
        <mxCell id="HN2c32hWHtCQHzf3WsaY-2" value="" style="rounded=0;whiteSpace=wrap;html=1;" vertex="1" parent="1">
          <mxGeometry x="200" y="20" width="420" height="400" as="geometry" />
        </mxCell>
        <mxCell id="HN2c32hWHtCQHzf3WsaY-3" value="Input Starting Point" style="shape=ellipse;html=1;strokeWidth=3;fontStyle=1;whiteSpace=wrap;align=center;perimeter=ellipsePerimeter;" vertex="1" parent="1">
          <mxGeometry x="241" y="82" width="100" height="50" as="geometry" />
        </mxCell>
        <mxCell id="HN2c32hWHtCQHzf3WsaY-4" value="&lt;b&gt;MyWaze System&lt;/b&gt;" style="text;html=1;align=center;verticalAlign=middle;resizable=0;points=[];autosize=1;strokeColor=none;fillColor=none;" vertex="1" parent="1">
          <mxGeometry x="360" y="30" width="120" height="30" as="geometry" />
        </mxCell>
        <mxCell id="HN2c32hWHtCQHzf3WsaY-5" value="" style="edgeStyle=none;html=1;endArrow=none;verticalAlign=bottom;rounded=0;entryX=0;entryY=0.5;entryDx=0;entryDy=0;" edge="1" parent="1" source="HN2c32hWHtCQHzf3WsaY-1" target="HN2c32hWHtCQHzf3WsaY-3">
          <mxGeometry width="160" relative="1" as="geometry">
            <mxPoint x="81" y="132" as="sourcePoint" />
            <mxPoint x="271" y="262" as="targetPoint" />
          </mxGeometry>
        </mxCell>
        <mxCell id="HN2c32hWHtCQHzf3WsaY-6" value="Query DB" style="shape=ellipse;html=1;strokeWidth=3;fontStyle=1;whiteSpace=wrap;align=center;perimeter=ellipsePerimeter;" vertex="1" parent="1">
          <mxGeometry x="491" y="82" width="100" height="50" as="geometry" />
        </mxCell>
        <mxCell id="HN2c32hWHtCQHzf3WsaY-7" value="&amp;lt;&amp;lt;include&amp;gt;&amp;gt;" style="edgeStyle=none;html=1;endArrow=open;verticalAlign=bottom;dashed=1;labelBackgroundColor=none;rounded=0;exitX=1;exitY=0.5;exitDx=0;exitDy=0;entryX=0;entryY=0.5;entryDx=0;entryDy=0;" edge="1" parent="1" source="HN2c32hWHtCQHzf3WsaY-3" target="HN2c32hWHtCQHzf3WsaY-6">
          <mxGeometry width="160" relative="1" as="geometry">
            <mxPoint x="531" y="57" as="sourcePoint" />
            <mxPoint x="541" y="82" as="targetPoint" />
            <mxPoint as="offset" />
          </mxGeometry>
        </mxCell>
        <mxCell id="HN2c32hWHtCQHzf3WsaY-8" value="Add a Stop" style="shape=ellipse;html=1;strokeWidth=3;fontStyle=1;whiteSpace=wrap;align=center;perimeter=ellipsePerimeter;" vertex="1" parent="1">
          <mxGeometry x="241" y="162" width="100" height="50" as="geometry" />
        </mxCell>
        <mxCell id="HN2c32hWHtCQHzf3WsaY-9" value="" style="edgeStyle=none;html=1;endArrow=none;verticalAlign=bottom;rounded=0;entryX=0;entryY=0.5;entryDx=0;entryDy=0;" edge="1" parent="1" source="HN2c32hWHtCQHzf3WsaY-1" target="HN2c32hWHtCQHzf3WsaY-8">
          <mxGeometry width="160" relative="1" as="geometry">
            <mxPoint x="81" y="132" as="sourcePoint" />
            <mxPoint x="271" y="262" as="targetPoint" />
          </mxGeometry>
        </mxCell>
        <mxCell id="HN2c32hWHtCQHzf3WsaY-10" value="Query DB" style="shape=ellipse;html=1;strokeWidth=3;fontStyle=1;whiteSpace=wrap;align=center;perimeter=ellipsePerimeter;" vertex="1" parent="1">
          <mxGeometry x="491" y="158" width="100" height="50" as="geometry" />
        </mxCell>
        <mxCell id="HN2c32hWHtCQHzf3WsaY-11" value="&amp;lt;&amp;lt;include&amp;gt;&amp;gt;" style="edgeStyle=none;html=1;endArrow=open;verticalAlign=bottom;dashed=1;labelBackgroundColor=none;rounded=0;exitX=1;exitY=0.5;exitDx=0;exitDy=0;entryX=0;entryY=0.5;entryDx=0;entryDy=0;" edge="1" parent="1" target="HN2c32hWHtCQHzf3WsaY-10">
          <mxGeometry width="160" relative="1" as="geometry">
            <mxPoint x="341" y="183" as="sourcePoint" />
            <mxPoint x="541" y="158" as="targetPoint" />
            <mxPoint as="offset" />
          </mxGeometry>
        </mxCell>
        <mxCell id="HN2c32hWHtCQHzf3WsaY-13" value="" style="edgeStyle=none;html=1;endArrow=none;verticalAlign=bottom;rounded=0;entryX=0;entryY=0.5;entryDx=0;entryDy=0;" edge="1" parent="1" source="HN2c32hWHtCQHzf3WsaY-1">
          <mxGeometry width="160" relative="1" as="geometry">
            <mxPoint x="91" y="182" as="sourcePoint" />
            <mxPoint x="241" y="263" as="targetPoint" />
          </mxGeometry>
        </mxCell>
        <mxCell id="HN2c32hWHtCQHzf3WsaY-14" value="Start Route" style="shape=ellipse;html=1;strokeWidth=3;fontStyle=1;whiteSpace=wrap;align=center;perimeter=ellipsePerimeter;" vertex="1" parent="1">
          <mxGeometry x="241" y="318" width="100" height="58" as="geometry" />
        </mxCell>
        <mxCell id="HN2c32hWHtCQHzf3WsaY-15" value="" style="edgeStyle=none;html=1;endArrow=none;verticalAlign=bottom;rounded=0;entryX=0;entryY=0.5;entryDx=0;entryDy=0;" edge="1" parent="1" target="HN2c32hWHtCQHzf3WsaY-14">
          <mxGeometry width="160" relative="1" as="geometry">
            <mxPoint x="120" y="120" as="sourcePoint" />
            <mxPoint x="271" y="396" as="targetPoint" />
          </mxGeometry>
        </mxCell>
        <mxCell id="HN2c32hWHtCQHzf3WsaY-16" value="Input&lt;br&gt;Final&amp;nbsp;&lt;div&gt;Destination&lt;/div&gt;" style="shape=ellipse;html=1;strokeWidth=3;fontStyle=1;whiteSpace=wrap;align=center;perimeter=ellipsePerimeter;" vertex="1" parent="1">
          <mxGeometry x="241" y="238" width="100" height="50" as="geometry" />
        </mxCell>
        <mxCell id="HN2c32hWHtCQHzf3WsaY-17" value="Query DB" style="shape=ellipse;html=1;strokeWidth=3;fontStyle=1;whiteSpace=wrap;align=center;perimeter=ellipsePerimeter;" vertex="1" parent="1">
          <mxGeometry x="491" y="238" width="100" height="50" as="geometry" />
        </mxCell>
        <mxCell id="HN2c32hWHtCQHzf3WsaY-18" value="&amp;lt;&amp;lt;include&amp;gt;&amp;gt;" style="edgeStyle=none;html=1;endArrow=open;verticalAlign=bottom;dashed=1;labelBackgroundColor=none;rounded=0;exitX=1;exitY=0.5;exitDx=0;exitDy=0;entryX=0;entryY=0.5;entryDx=0;entryDy=0;" edge="1" parent="1" target="HN2c32hWHtCQHzf3WsaY-17">
          <mxGeometry width="160" relative="1" as="geometry">
            <mxPoint x="341" y="263" as="sourcePoint" />
            <mxPoint x="541" y="238" as="targetPoint" />
            <mxPoint as="offset" />
          </mxGeometry>
        </mxCell>
      </root>
    </mxGraphModel>
  </diagram>
</mxfile>
